With: Cynthia Gibb, Greg Evigan and Kendall Ryan Sanders

Cinnamon is een schattige puppy die er echter op uit lijkt te zijn de relatie van haar baasje te verstoren. Wanneer de in de liefde ongelukkige lerares Madeline de vrijgezelle architect Kevin ontmoet, vliegen de vonken er vanaf. Cinnamon is behoorlijk jaloers en niet van plan haar baasje te verliezen aan een stompzinnige romance. Ze zet alles op het spel om de twee geliefden uit elkaar te drijven.

University professor Madeline Walters isn’t doing too well in the dating game.  Good men are hard to find, so she’s happy spending time with her Maltese puppy Cinnamon, and her precocious teenage daughter Chloe. 

Across town, architect Kevin Fallon, a widower, is having little luck dating too.  But when his work takes him to Los Angeles University for a project, he bumps into Madeline and the attraction between the two is fast and mutual.

The trouble is both Kevin’s son, thirteen year-old Jordan, and Madeline’s pooch Cinnamon are dead set against losing their parents in a romance. 

------------------------ Dutch Friends ------------------------
---------------------------------------------------------------
- Bezoek ook eens mijn vrienden op:  http://www.Film-Test.nl --
----- voor mijn Nederlandse Sync. ondertitels ---- en meer ----
------- http://www.Film-Test.nl ---- voor Films en meer -------
---------------------------------------------------------------

General:

Complete name                    : My Dog's Christmas Miracle\My Dog's Christmas Miracle.avi
Format                           : AVI
Format/Info                      : Audio Video Interleave
File size                        : 1.46 GiB
Duration                         : 1h 27mn
Overall bit rate                 : 2 394 Kbps

Video:

Format                           : MPEG-4 Visual
Format profile                   : Simple@L3
Format settings, BVOP            : No
Format settings, QPel            : No
Format settings, GMC             : No warppoints
Format settings, Matrix          : Default (H.263)
Codec ID                         : XVID
Codec ID/Hint                    : XviD
Duration                         : 1h 27mn
Bit rate                         : 1 935 Kbps
Width                            : 704 pixels
Height                           : 396 pixels
Display aspect ratio             : 16:9
Frame rate                       : 25.000 fps
Color space                      : YUV
Chroma subsampling               : 4:2:0
Bit depth                        : 8 bits
Scan type                        : Progressive
Compression mode                 : Lossy
Bits/(Pixel*Frame)               : 0.278
Stream size                      : 1.18 GiB (81%)
Writing library                  : XviD 1.1.2 (UTC 2006-11-01)

Audio:

Format                           : AC-3
Format/Info                      : Audio Coding 3
Mode extension                   : CM (complete main)
Codec ID                         : 2000
Duration                         : 1h 27mn
Bit rate mode                    : Constant
Bit rate                         : 448 Kbps
Channel(s)                       : 6 channels
Channel positions                : Front: L C R, Side: L R, LFE
Sampling rate                    : 48.0 KHz
Bit depth                        : 16 bits
Compression mode                 : Lossy
Stream size                      : 280 MiB (19%)
Alignment                        : Aligned on interleaves
Interleave, duration             : 32 ms (0.80 video frame)
Interleave, preload duration     : 256 ms

